<?xml version="1.0" encoding="UTF-8"?>
<svg version="1.1" xmlns="http://www.w3.org/2000/svg" width="397" height="397">
<path d="M0 0 C0.66 0.53625 1.32 1.0725 2 1.625 C6.52137026 5.33898272 10.29962879 9.47484725 14 14 C14.78632813 14.96035156 15.57265625 15.92070313 16.3828125 16.91015625 C40.61837243 47.13095961 50.68130169 84.6629455 46.53125 123.02734375 C44.18513738 140.37242293 38.47304948 156.75103142 30 172 C29.41089844 173.09054687 28.82179688 174.18109375 28.21484375 175.3046875 C24.41988268 182.09931029 20.06948537 188.10458723 15 194 C13.96746094 195.21623047 13.96746094 195.21623047 12.9140625 196.45703125 C-10.53177813 223.33087385 -44.15645421 241.34266459 -80 244 C-113.86424046 245.53203257 -146.36946806 238.50541726 -174 218 C-174.78761719 217.43410156 -175.57523438 216.86820313 -176.38671875 216.28515625 C-189.58173965 206.31800823 -201.20895204 193.99627372 -210 180 C-210.36029297 179.43071777 -210.72058594 178.86143555 -211.09179688 178.27490234 C-230.74195088 146.76536516 -236.41362375 108.3819251 -228.25 72.3125 C-219.5284179 36.82397689 -197.27049645 5.21344448 -166 -14 C-112.631332 -45.93177692 -47.18639616 -40.10843674 0 0 Z " fill="#ED1703" transform="translate(291,94)"/>
<path d="M0 0 C5.50703349 5.37591364 8.67310838 10.80965254 8.9375 18.5 C8.83314111 22.88307349 8.21201857 25.90499099 5.625 29.5625 C1.70620157 33.12504403 -2.22896288 32.8550332 -7.265625 32.765625 C-9.375 32.5625 -9.375 32.5625 -10.375 31.5625 C-10.87842536 28.10717142 -11.27681156 24.64417688 -11.6796875 21.17578125 C-13.08741292 13.8603542 -16.42126979 9.70316011 -22.375 5.5625 C-30.96001036 0.84987729 -41.17820036 0.20024058 -50.64453125 2.28125 C-59.71955463 5.11220069 -65.5789533 8.43942713 -70.4296875 16.6953125 C-73.40504358 22.57225551 -73.47357668 29.92414455 -71.5859375 36.17578125 C-70.6164559 38.37746657 -69.546439 40.46258713 -68.375 42.5625 C-67.983125 43.449375 -67.59125 44.33625 -67.1875 45.25 C-60.64355962 53.59916532 -50.4200729 56.05228258 -40.375 57.5625 C-35.42319849 58.11596616 -30.46290576 58.55878464 -25.5 59 C6.28968309 61.85058274 6.28968309 61.85058274 17.625 71.5625 C17.625 72.2225 17.625 72.8825 17.625 73.5625 C18.21152344 73.77648437 18.79804688 73.99046875 19.40234375 74.2109375 C25.85168945 78.13268374 29.51273055 88.52160182 31.625 95.5625 C32.11203024 98.30757952 32.45170608 100.80508799 32.625 103.5625 C32.68945312 104.31144531 32.75390625 105.06039062 32.8203125 105.83203125 C33.4137257 118.07612355 28.72643709 128.57496823 20.625 137.5625 C7.01523509 150.95961234 -12.98342615 157.54766485 -31.875 157.8125 C-46.75907067 157.68689603 -61.38273041 153.94295496 -72.375 143.5625 C-80.44290496 134.7113033 -82.69079065 127.92733589 -82.87109375 116.18359375 C-82.29557939 111.98279209 -81.01613705 109.83829105 -78.375 106.5625 C-74.20336299 104.01316627 -70.12385064 104.32894997 -65.375 104.5625 C-64.715 104.8925 -64.055 105.2225 -63.375 105.5625 C-63.1015625 107.6796875 -63.1015625 107.6796875 -63 110.4375 C-62.25652695 120.46786447 -58.71225015 129.70450572 -51.25 136.625 C-40.9206946 145.08434494 -30.29890675 146.2812208 -17.375 145.5625 C-7.30936741 143.97450579 0.61608185 139.76363549 7.08203125 131.84765625 C12.50369994 123.81809629 13.77242911 115.0731495 12.625 105.5625 C10.73832803 97.65857245 6.48782484 91.18399484 -0.04296875 86.3203125 C-10.74743047 80.22373165 -24.73011097 79.03460426 -36.77340698 77.83850098 C-70.45674199 74.4166087 -70.45674199 74.4166087 -81.375 62.5625 C-89.45503318 52.19111413 -91.47542755 40.46195628 -90.375 27.5625 C-88.2586971 15.78174719 -79.11853609 7.24590497 -69.953125 0.265625 C-49.76209242 -13.07269349 -19.62754564 -15.26041673 0 0 Z " fill="#FDB9B5" transform="translate(227.375,118.4375)"/>
<path d="M0 0 C-3.75975782 1.40768184 -5.9545522 0.52926103 -9.625 -0.875 C-16.12314415 -3.18156279 -22.13706442 -4 -29 -4 C-29 -2.68 -29 -1.36 -29 0 C-28.01 0.33 -27.02 0.66 -26 1 C-26.99 1 -27.98 1 -29 1 C-29 1.99 -29 2.98 -29 4 C-26.525 4.495 -26.525 4.495 -24 5 C-27.43687134 6.082284 -30.41854752 5.97489429 -34 5.8125 C-44.73395545 5.74013626 -53.98577644 9.09740936 -61.68359375 16.65234375 C-62.11800781 17.09707031 -62.55242187 17.54179687 -63 18 C-63 17.01 -63 16.02 -63 15 C-63.66 14.34 -64.32 13.68 -65 13 C-64.34 11.35 -63.68 9.7 -63 8 C-64.32 7.67 -65.64 7.34 -67 7 C-47.2699154 -6.50930499 -21.84018106 -10.42372278 0 0 Z " fill="#FDB4AE" transform="translate(221,114)"/>
<path d="M0 0 C2.83339965 -0.02724423 5.66653117 -0.04695589 8.5 -0.0625 C9.29148438 -0.07087891 10.08296875 -0.07925781 10.8984375 -0.08789062 C18.28171413 -0.11814996 24.63803447 -0.08983498 31 4 C35.5643323 6.00950145 40.12666183 7.89702739 45 9 C44.67 9.99 44.34 10.98 44 12 C44.87483915 14.16715557 44.87483915 14.16715557 46 16 C43 16 43 16 40.6875 13.75 C39.800625 12.8425 38.91375 11.935 38 11 C28.86208605 3.82021047 17.94870127 1.80440044 6.625 1.9375 C5.52091797 1.94426758 5.52091797 1.94426758 4.39453125 1.95117188 C2.59631842 1.96284858 0.79814803 1.98077989 -1 2 C-0.67 1.34 -0.34 0.68 0 0 Z " fill="#DC2A1B" transform="translate(187,107)"/>
<path d="M0 0 C0.71285156 0.20496094 1.42570313 0.40992188 2.16015625 0.62109375 C16.63914233 4.69391756 29.44599867 5.08133136 43.95825195 1.33520508 C47.71522722 0.38504587 50.29455873 -0.15480257 54 1 C52.845 1.45375 51.69 1.9075 50.5 2.375 C49.8503125 2.63023437 49.200625 2.88546875 48.53125 3.1484375 C40.47012856 5.86035799 33.42037034 6.27850764 24.9375 6.1875 C23.79216797 6.18685547 22.64683594 6.18621094 21.46679688 6.18554688 C5.48115267 6.10233647 5.48115267 6.10233647 1 3 C0.67 2.01 0.34 1.02 0 0 Z " fill="#DC2A1A" transform="translate(170,271)"/>
<path d="M0 0 C0.33 0 0.66 0 1 0 C1.97405677 11.98630968 -1.46053918 22.10964094 -8.8359375 31.54296875 C-11.91604238 35.04005533 -15.14796707 38.35059707 -19 41 C-19.66 41 -20.32 41 -21 41 C-21 40.01 -21 39.02 -21 38 C-20.01 38 -19.02 38 -18 38 C-18 37.34 -18 36.68 -18 36 C-16.02 35.505 -16.02 35.505 -14 35 C-13.67 33.35 -13.34 31.7 -13 30 C-11.68 29.67 -10.36 29.34 -9 29 C-8.896875 28.360625 -8.79375 27.72125 -8.6875 27.0625 C-8.460625 26.381875 -8.23375 25.70125 -8 25 C-7.01 24.67 -6.02 24.34 -5 24 C-4.87625 23.360625 -4.7525 22.72125 -4.625 22.0625 C-4.09305984 19.45599323 -3.55597568 16.85146827 -3 14.25 C-2.835 13.47140625 -2.67 12.6928125 -2.5 11.890625 C-2 10 -2 10 -1 9 C-0.76807135 7.48530552 -0.58784762 5.96245438 -0.4375 4.4375 C-0.35371094 3.61121094 -0.26992188 2.78492188 -0.18359375 1.93359375 C-0.09271484 0.97646484 -0.09271484 0.97646484 0 0 Z " fill="#FB9D92" transform="translate(259,222)"/>
<path d="M0 0 C0.66 0 1.32 0 2 0 C1.835 0.86625 1.67 1.7325 1.5 2.625 C0.12099445 12.83375753 0.70628824 21.7446342 4.22265625 31.453125 C5 34 5 34 4 36 C1.5 35.125 1.5 35.125 -1 33 C-1.33205022 30.36544368 -1.24920007 27.92511923 -1.078125 25.27734375 C-0.81737965 22.96722717 -0.81737965 22.96722717 -2 21 C-2.60397276 13.82255631 -1.49090807 7.00194325 0 0 Z " fill="#DC2818" transform="translate(137,139)"/>
<path d="M0 0 C0.33 0 0.66 0 1 0 C1.82369942 36.35260116 1.82369942 36.35260116 -4 48 C-4.33 44.7 -4.66 41.4 -5 38 C-4.01 38 -3.02 38 -2 38 C-2 33.71 -2 29.42 -2 25 C-1.34 25 -0.68 25 0 25 C0 16.75 0 8.5 0 0 Z " fill="#C61F12" transform="translate(337,186)"/>
<path d="M0 0 C0.33 0 0.66 0 1 0 C1 1.65 1 3.3 1 5 C0.38125 5.2475 -0.2375 5.495 -0.875 5.75 C-3.13549268 6.8060077 -3.13549268 6.8060077 -3.8828125 8.9375 C-5.25438315 11.46963042 -6.41620049 12.05309288 -9 13.25 C-9.70125 13.58515625 -10.4025 13.9203125 -11.125 14.265625 C-13 15 -13 15 -15 15 C-15 15.66 -15 16.32 -15 17 C-18.98196457 18.05404945 -21.98195309 17.84098656 -26 17 C-23 15 -23 15 -19.3125 14.1875 C-11.39813523 12.28863226 -6.38826928 7.78599927 -1.34765625 1.57421875 C-0.90292969 1.05472656 -0.45820313 0.53523437 0 0 Z " fill="#FEA69B" transform="translate(236,248)"/>
<path d="M0 0 C0.33 0.99 0.66 1.98 1 3 C1.92683594 3.13277344 2.85367188 3.26554687 3.80859375 3.40234375 C5.00613281 3.57894531 6.20367187 3.75554687 7.4375 3.9375 C9.22994141 4.19853516 9.22994141 4.19853516 11.05859375 4.46484375 C14 5 14 5 15 6 C17.18292774 6.23481693 19.37203174 6.41363323 21.5625 6.5625 C22.76003906 6.64628906 23.95757812 6.73007812 25.19140625 6.81640625 C26.11824219 6.87699219 27.04507813 6.93757813 28 7 C28 7.66 28 8.32 28 9 C22.04937316 9.19587761 16.84426235 8.55676738 11.0625 7.1875 C9.88324951 6.91728027 9.88324951 6.91728027 8.68017578 6.64160156 C3.33379282 5.38949529 -1.8465114 3.90869948 -7 2 C-7 1.67 -7 1.34 -7 1 C-3.535 0.505 -3.535 0.505 0 0 Z " fill="#C21D12" transform="translate(158,328)"/>
<path d="M0 0 C4.02004698 1.37061961 7.19390662 3.17923137 10.5625 5.75 C8.5625 6.75 8.5625 6.75 6.5 6.4375 C4.5625 5.75 4.5625 5.75 3.5625 3.75 C1.03516765 3.09444881 1.03516765 3.09444881 -1.4375 2.75 C-1.4375 2.09 -1.4375 1.43 -1.4375 0.75 C-8.3675 0.75 -15.2975 0.75 -22.4375 0.75 C-15.47766556 -2.72991722 -7.41932824 -2.06029904 0 0 Z " fill="#DF3C30" transform="translate(198.4375,120.25)"/>
<path d="M0 0 C0.99 0 1.98 0 3 0 C1.58181807 5.2240374 -0.78408495 8.95443895 -3.9375 13.25 C-4.60168945 14.18585938 -4.60168945 14.18585938 -5.27929688 15.140625 C-7.35645481 18.01335609 -9.02349847 20.01566565 -12 22 C-12.33 20.35 -12.66 18.7 -13 17 C-11.68 17 -10.36 17 -9 17 C-8.67 16.01 -8.34 15.02 -8 14 C-7.34 14 -6.68 14 -6 14 C-6 12.68 -6 11.36 -6 10 C-4 7.75 -4 7.75 -2 6 C-2.66 5.67 -3.32 5.34 -4 5 C-2.68 5 -1.36 5 0 5 C0 3.35 0 1.7 0 0 Z " fill="#CE1C0F" transform="translate(317,266)"/>
<path d="M0 0 C-3.75975782 1.40768184 -5.9545522 0.52926103 -9.625 -0.875 C-18.73994999 -4.07904303 -27.4141158 -4.16401703 -37 -4 C-37 -4.33 -37 -4.66 -37 -5 C-23.7912851 -6.95684665 -12.18603041 -5.81605997 0 0 Z " fill="#FB998B" transform="translate(221,114)"/>
<path d="M0 0 C10.06394247 -0.1176305 19.96557967 0.12198822 30 1 C30 1.33 30 1.66 30 2 C19.94684862 3.90400594 9.89643489 3.55391868 0 1 C0 0.67 0 0.34 0 0 Z " fill="#FB988F" transform="translate(178,273)"/>
<path d="M0 0 C-10.69209807 5.83205349 -19.97019292 6.28529187 -32 6 C-32 5.67 -32 5.34 -32 5 C-31.13117188 4.96261719 -30.26234375 4.92523438 -29.3671875 4.88671875 C-23.14409737 4.53171025 -18.48739664 4.15525307 -13 1 C-11.33382885 0.95936168 -9.66611905 0.957279 -8 1 C-7.13375 0.649375 -6.2675 0.29875 -5.375 -0.0625 C-3 -1 -3 -1 0 0 Z " fill="#DC2C1F" transform="translate(227,259)"/>
<path d="M0 0 C0 0.99 0 1.98 0 3 C-10.375 8.30813953 -10.375 8.30813953 -17 8 C-13.9703348 5.55185821 -10.92450401 3.90547147 -7.375 2.3125 C-6.41335937 1.87550781 -5.45171875 1.43851562 -4.4609375 0.98828125 C-2 0 -2 0 0 0 Z " fill="#D81D10" transform="translate(149,69)"/>
<path d="M0 0 C3.42931954 3.7559214 4.56429083 8.23466745 6 13 C4.02 13 2.04 13 0 13 C-1.29676812 8.38926889 -0.71109139 4.66159911 0 0 Z " fill="#E01A0A" transform="translate(323,137)"/>
<path d="M0 0 C4.82829428 1.48700714 7.7487769 4.21283256 11.3125 7.625 C12.13717773 8.3984375 12.13717773 8.3984375 12.97851562 9.1875 C14.32498054 10.45200618 15.66332535 11.72514922 17 13 C15.02 13.99 15.02 13.99 13 15 C12.79375 14.21625 12.5875 13.4325 12.375 12.625 C11.19323388 9.69083714 11.19323388 9.69083714 7.875 8.6875 C6.92625 8.460625 5.9775 8.23375 5 8 C5 6.68 5 5.36 5 4 C3.35 3.67 1.7 3.34 0 3 C0 2.01 0 1.02 0 0 Z " fill="#D01D0F" transform="translate(278,85)"/>
<path d="M0 0 C0.33 1.32 0.66 2.64 1 4 C0.01 4.33 -0.98 4.66 -2 5 C-2 5.66 -2 6.32 -2 7 C-7.445 8.485 -7.445 8.485 -13 10 C-9.11973109 5.75595588 -4.95745654 2.89082453 0 0 Z " fill="#D52012" transform="translate(127,79)"/>
<path d="M0 0 C5.27749285 0.53851968 9.25645564 1.77343836 14 4 C13.67 5.32 13.34 6.64 13 8 C11.35 8 9.7 8 8 8 C8 6.68 8 5.36 8 4 C7.05125 3.71125 6.1025 3.4225 5.125 3.125 C2 2 2 2 0 0 Z " fill="#FEB2AA" transform="translate(225,182)"/>
<path d="M0 0 C0.50789062 0.33773437 1.01578125 0.67546875 1.5390625 1.0234375 C5.59911488 3.65410814 9.287806 5.70414665 14 7 C10.16907918 8.3791315 6.95258918 7.57492206 3 7 C2.01 7.33 1.02 7.66 0 8 C0 5.33333333 0 2.66666667 0 0 Z " fill="#FDAAA3" transform="translate(163,167)"/>
<path d="M0 0 C0 0.66 0 1.32 0 2 C0.99 1.67 1.98 1.34 3 1 C3.33 1.33 3.66 1.66 4 2 C4.66 1.67 5.32 1.34 6 1 C6 2.65 6 4.3 6 6 C-3.59453303 3.10933941 -3.59453303 3.10933941 -7 0 C-3.98968256 -0.93423645 -3.13349732 -1.04449911 0 0 Z " fill="#D41D0E" transform="translate(144,323)"/>
<path d="M0 0 C-0.33 1.32 -0.66 2.64 -1 4 C-2.32 4.33 -3.64 4.66 -5 5 C-5.33 4.01 -5.66 3.02 -6 2 C-8.64 2.33 -11.28 2.66 -14 3 C-9.2903051 -0.1397966 -5.55597581 -1.63411053 0 0 Z " fill="#D91C0F" transform="translate(163,66)"/>
<path d="M0 0 C-0.51743537 4.03054923 -2.43129462 5.65263855 -5.4375 8.25 C-6.24058594 8.95640625 -7.04367188 9.6628125 -7.87109375 10.390625 C-10 12 -10 12 -12 12 C-12 11.01 -12 10.02 -12 9 C-11.01 9 -10.02 9 -9 9 C-9 8.34 -9 7.68 -9 7 C-7.68 6.67 -6.36 6.34 -5 6 C-4.814375 4.7934375 -4.814375 4.7934375 -4.625 3.5625 C-4.41875 2.716875 -4.2125 1.87125 -4 1 C-2 0 -2 0 0 0 Z " fill="#FDA599" transform="translate(250,251)"/>
<path d="M0 0 C2.97 0.33 5.94 0.66 9 1 C8.67 2.32 8.34 3.64 8 5 C8.85790183 7.21771064 8.85790183 7.21771064 10 9 C7 9 7 9 4.4375 6.75 C2 4 2 4 0 0 Z " fill="#E32211" transform="translate(223,114)"/>
<path d="M0 0 C1.32 0.33 2.64 0.66 4 1 C0.7 3.31 -2.6 5.62 -6 8 C-6.66 7.67 -7.32 7.34 -8 7 C-8 6.34 -8 5.68 -8 5 C-8.33 4.34 -8.66 3.68 -9 3 C-7.1875 2.375 -7.1875 2.375 -5 2 C-4.01 2.66 -3.02 3.32 -2 4 C-2 3.34 -2 2.68 -2 2 C-1.34 2 -0.68 2 0 2 C0 1.34 0 0.68 0 0 Z " fill="#D91908" transform="translate(276,311)"/>
<path d="M0 0 C0 1.98 0 3.96 0 6 C-3.59391114 4.66511872 -6.75490696 3.03977277 -10 1 C-6.41631413 -0.79184293 -3.82245883 -1.27415294 0 0 Z " fill="#D51B0D" transform="translate(133,315)"/>
<path d="M0 0 C1.33333333 1.33333333 2.66666667 2.66666667 4 4 C5.299375 5.2684375 5.299375 5.2684375 6.625 6.5625 C9 9 9 9 11 12 C10.01 12.495 10.01 12.495 9 13 C9 12.34 9 11.68 9 11 C7.68 11.33 6.36 11.66 5 12 C4.34 9.69 3.68 7.38 3 5 C2.34 5 1.68 5 1 5 C0.67 3.35 0.34 1.7 0 0 Z " fill="#E12A1A" transform="translate(142,175)"/>
<path d="M0 0 C-2.40118527 2.40118527 -4.05496042 2.75220861 -7.3125 3.625 C-8.72982422 4.01558594 -8.72982422 4.01558594 -10.17578125 4.4140625 C-12.87851902 4.97479648 -15.25031848 5.1101876 -18 5 C-16.68 4.67 -15.36 4.34 -14 4 C-14 3.34 -14 2.68 -14 2 C-9.126739 0.4087311 -5.19209404 -0.21192221 0 0 Z " fill="#FEADA5" transform="translate(226,269)"/>
<path d="M0 0 C3.53600465 1.91135386 5.78972846 3.62642766 8 7 C6.68 7.33 5.36 7.66 4 8 C3.67 7.34 3.34 6.68 3 6 C2.01 6.33 1.02 6.66 0 7 C0 4.69 0 2.38 0 0 Z " fill="#E32517" transform="translate(226,204)"/>
<path d="M0 0 C1.8125 0.1875 1.8125 0.1875 4 1 C5.03013277 2.64821244 6.03114628 4.31503702 7 6 C7.99 6.33 8.98 6.66 10 7 C11.1875 10.0625 11.1875 10.0625 12 13 C7.47985202 9.32656562 3.55173809 5.62802237 0 1 C0 0.67 0 0.34 0 0 Z " fill="#CD1C13" transform="translate(89,284)"/>
<path d="M0 0 C2.80500965 4.20751447 3.12829139 7.24985414 3.0625 12.25 C3.05347656 13.14203125 3.04445312 14.0340625 3.03515625 14.953125 C3.02355469 15.62859375 3.01195312 16.3040625 3 17 C0.82307432 12.79127702 -0.12422287 9.56516121 -0.0625 4.8125 C-0.05347656 3.91144531 -0.04445312 3.01039063 -0.03515625 2.08203125 C-0.02355469 1.39496094 -0.01195312 0.70789063 0 0 Z " fill="#E22A1C" transform="translate(164,225)"/>
<path d="M0 0 C0.33 0.99 0.66 1.98 1 3 C1.66 3.33 2.32 3.66 3 4 C2.01 5.485 2.01 5.485 1 7 C0.74984127 10.58357241 0.74984127 10.58357241 1 14 C1.33 14.33 1.66 14.66 2 15 C2.04063832 16.66617115 2.042721 18.33388095 2 20 C-0.74790363 15.87814456 -1.13695043 13.99205253 -1.125 9.0625 C-1.12757813 8.00160156 -1.13015625 6.94070312 -1.1328125 5.84765625 C-1 3 -1 3 0 0 Z " fill="#E0291B" transform="translate(155,137)"/>
<path d="M0 0 C0.99 0.33 1.98 0.66 3 1 C1.37660195 2.70884005 -0.29319053 4.37446717 -2 6 C-2.66 6 -3.32 6 -4 6 C-4.66 7.32 -5.32 8.64 -6 10 C-6.33 10 -6.66 10 -7 10 C-7 8.02 -7 6.04 -7 4 C-6.01 4 -5.02 4 -4 4 C-3.67 3.34 -3.34 2.68 -3 2 C-2.01 2 -1.02 2 0 2 C0 1.34 0 0.68 0 0 Z " fill="#E12B1D" transform="translate(153,119)"/>
<path d="M0 0 C2.64 0.66 5.28 1.32 8 2 C8 2.66 8 3.32 8 4 C8.66 4 9.32 4 10 4 C10 4.66 10 5.32 10 6 C10.99 6 11.98 6 13 6 C12.67 6.66 12.34 7.32 12 8 C7.32760855 5.86793788 3.40712181 3.97497544 0 0 Z " fill="#FDA79B" transform="translate(157,263)"/>
<path d="M0 0 C3.48331435 3.01887244 4.79157144 5.56909529 6 10 C4.68 9.67 3.36 9.34 2 9 C2 8.01 2 7.02 2 6 C1.34 5.67 0.68 5.34 0 5 C0 3.35 0 1.7 0 0 Z " fill="#D51C10" transform="translate(315,123)"/>
<path d="M0 0 C0 3 0 3 -2.3125 5.4375 C-3.199375 6.283125 -4.08625 7.12875 -5 8 C-5.556875 8.763125 -6.11375 9.52625 -6.6875 10.3125 C-7.3371875 11.1478125 -7.3371875 11.1478125 -8 12 C-8.66 12 -9.32 12 -10 12 C-7.75066455 6.93899525 -4.58147862 3.10886049 0 0 Z " fill="#FEAAA2" transform="translate(153,122)"/>
<path d="M0 0 C4.8 3.32307692 4.8 3.32307692 5.8125 6.75 C5.874375 7.4925 5.93625 8.235 6 9 C3.5067466 8.00269864 2.22532561 7.34925469 0.75 5.0625 C0 3 0 3 0 0 Z " fill="#E12619" transform="translate(209,127)"/>
<path d="M0 0 C0.66 0 1.32 0 2 0 C1.6189482 2.76262553 1.16402868 3.84143894 -0.875 5.8125 C-1.57625 6.204375 -2.2775 6.59625 -3 7 C-3.99 6.67 -4.98 6.34 -6 6 C-4 4 -2 2 0 0 Z " fill="#DF2415" transform="translate(165,125)"/>
<path d="M0 0 C0 3.16785869 -0.55555175 4.28103859 -2 7 C-2.33 7.99 -2.66 8.98 -3 10 C-3.99 9.67 -4.98 9.34 -6 9 C-6 9.66 -6 10.32 -6 11 C-6.66 10.67 -7.32 10.34 -8 10 C-6.85500893 8.52018126 -5.708983 7.04116318 -4.5625 5.5625 C-3.60537109 4.32693359 -3.60537109 4.32693359 -2.62890625 3.06640625 C-1 1 -1 1 0 0 Z " fill="#D12013" transform="translate(93,108)"/>
<path d="M0 0 C1.65 0 3.3 0 5 0 C5.433125 0.9075 5.86625 1.815 6.3125 2.75 C7.70517271 5.43218449 9.11112757 7.66139605 11 10 C7.81326038 8.59698853 5.67778594 6.92234929 3.25 4.4375 C2.63640625 3.81746094 2.0228125 3.19742187 1.390625 2.55859375 C0 1 0 1 0 0 Z " fill="#CB1D10" transform="translate(101,297)"/>
<path d="M0 0 C3.3 0.99 6.6 1.98 10 3 C10 3.66 10 4.32 10 5 C10.66 5.33 11.32 5.66 12 6 C7.01208429 5.52496041 3.9767259 4.0298864 0 1 C0 0.67 0 0.34 0 0 Z " fill="#FEA69A" transform="translate(152,185)"/>
<path d="M0 0 C2.0625 0.4375 2.0625 0.4375 4 1 C-0.72194167 4.77755334 -5.25928072 4.30096975 -11 4 C-11 3.67 -11 3.34 -11 3 C-10.28972656 2.86722656 -9.57945312 2.73445312 -8.84765625 2.59765625 C-7.92855469 2.42105469 -7.00945312 2.24445313 -6.0625 2.0625 C-4.68771484 1.80146484 -4.68771484 1.80146484 -3.28515625 1.53515625 C-1.04710156 1.22285012 -1.04710156 1.22285012 0 0 Z " fill="#FD9B90" transform="translate(229,147)"/>
<path d="M0 0 C9.59453303 2.70615034 9.59453303 2.70615034 13 7 C10.0625 6.625 10.0625 6.625 7 6 C6.67 5.34 6.34 4.68 6 4 C3.47266765 3.34444881 3.47266765 3.34444881 1 3 C0.67 2.01 0.34 1.02 0 0 Z " fill="#DE271A" transform="translate(196,120)"/>
<path d="M0 0 C1.32 0 2.64 0 4 0 C4.66 2.64 5.32 5.28 6 8 C1.2 4.55384615 1.2 4.55384615 0.1875 1.75 C0.125625 1.1725 0.06375 0.595 0 0 Z " fill="#DF2212" transform="translate(169,246)"/>
<path d="M0 0 C1.485 0.99 1.485 0.99 3 2 C3.1875 4.9375 3.1875 4.9375 3 8 C3 8.99 3 9.98 3 11 C0.39665076 8.28817788 0.00543309 7.10866187 -0.1875 3.25 C-0.125625 2.1775 -0.06375 1.105 0 0 Z " fill="#FFA8A3" transform="translate(145,239)"/>
<path d="M0 0 C2.32472205 2.85306797 3.7508258 5.54074837 5 9 C4.01 9.33 3.02 9.66 2 10 C-0.09350689 6.5980513 -0.17942163 3.94727588 0 0 Z " fill="#FEA89C" transform="translate(156,157)"/>
<path d="M0 0 C0.33 0 0.66 0 1 0 C0.95875 0.94875 0.9175 1.8975 0.875 2.875 C0.65026182 6.10244856 0.65026182 6.10244856 3 8 C-0.75 9.125 -0.75 9.125 -3 8 C-1.125 2.25 -1.125 2.25 0 0 Z " fill="#DA1D10" transform="translate(76,132)"/>
<path d="M0 0 C2.15377564 2.62198774 3.40072174 4.64404172 4 8 C2.68 8 1.36 8 0 8 C0 5.36 0 2.72 0 0 Z " fill="#D41E0D" transform="translate(323,137)"/>
<path d="M0 0 C0.99 0.33 1.98 0.66 3 1 C-0.28804981 3.91227269 -2.59885603 5.49701212 -7 6 C-7 5.34 -7 4.68 -7 4 C-6.030625 3.525625 -5.06125 3.05125 -4.0625 2.5625 C-1.19522563 1.29806053 -1.19522563 1.29806053 0 0 Z " fill="#FCA89D" transform="translate(235,262)"/>
<path d="M0 0 C1.32 0.66 2.64 1.32 4 2 C2.35 3.65 0.7 5.3 -1 7 C-1.625 4.625 -1.625 4.625 -2 2 C-1.34 1.34 -0.68 0.68 0 0 Z " fill="#E51E10" transform="translate(230,249)"/>
<path d="M0 0 C-0.33 0.66 -0.66 1.32 -1 2 C-3.28515625 2.6328125 -3.28515625 2.6328125 -6.0625 3.125 C-6.98160156 3.29257813 -7.90070313 3.46015625 -8.84765625 3.6328125 C-9.91306641 3.81457031 -9.91306641 3.81457031 -11 4 C-11 3.34 -11 2.68 -11 2 C-3.57142857 -1.57142857 -3.57142857 -1.57142857 0 0 Z " fill="#DD200F" transform="translate(161,221)"/>
<path d="M0 0 C-2.3129482 2.3129482 -3.47904875 2.49580975 -6.625 3.125 C-7.44226563 3.29257812 -8.25953125 3.46015625 -9.1015625 3.6328125 C-10.04128906 3.81457031 -10.04128906 3.81457031 -11 4 C-7.35237315 0.18657193 -5.28949249 -0.11498897 0 0 Z " fill="#C51E10" transform="translate(252,327)"/>
<path d="M0 0 C0.66 0 1.32 0 2 0 C5.22265625 5.17578125 5.22265625 5.17578125 6 7 C5.67 7.99 5.34 8.98 5 10 C4.16121545 8.71186658 3.32913217 7.41936744 2.5 6.125 C2.0359375 5.40570313 1.571875 4.68640625 1.09375 3.9453125 C0 2 0 2 0 0 Z " fill="#CA1F15" transform="translate(77,265)"/>
<path d="M0 0 C3 1 3 1 4.1875 3.0625 C4.455625 3.701875 4.72375 4.34125 5 5 C2.36 4.67 -0.28 4.34 -3 4 C-2.01 2.68 -1.02 1.36 0 0 Z " fill="#D8200B" transform="translate(112,89)"/>
<path d="M0 0 C0.66 0.99 1.32 1.98 2 3 C0.03533587 4.06775224 -1.96855359 5.06553465 -4 6 C-4.66 5.67 -5.32 5.34 -6 5 C-4.02 3.35 -2.04 1.7 0 0 Z " fill="#E32214" transform="translate(246,257)"/>
<path d="M0 0 C0.33 0 0.66 0 1 0 C1 2.31 1 4.62 1 7 C-0.65 7.66 -2.3 8.32 -4 9 C-2.68 6.03 -1.36 3.06 0 0 Z " fill="#E02A1C" transform="translate(256,242)"/>
<path d="M0 0 C1.13643966 3.40931897 0.86747764 4.00335456 -0.4375 7.1875 C-0.86869141 8.26064453 -0.86869141 8.26064453 -1.30859375 9.35546875 C-1.53675781 9.89816406 -1.76492188 10.44085938 -2 11 C-2.33 11 -2.66 11 -3 11 C-3.32613618 6.32538149 -2.70582788 3.83325617 0 0 Z " fill="#C52012" transform="translate(330,241)"/>
<path d="M0 0 C0.99 0.33 1.98 0.66 3 1 C2.44855089 5.08072342 2.08669204 5.91330796 -1 9 C-0.67 6.03 -0.34 3.06 0 0 Z " fill="#DE2618" transform="translate(236,240)"/>
<path d="M0 0 C1.17539996 0.92652701 2.34010577 1.86663387 3.5 2.8125 C4.1496875 3.33457031 4.799375 3.85664062 5.46875 4.39453125 C7 6 7 6 7 9 C6.566875 8.525625 6.13375 8.05125 5.6875 7.5625 C3.97690387 5.76313043 3.97690387 5.76313043 1 5 C0.67 3.35 0.34 1.7 0 0 Z " fill="#C91F12" transform="translate(299,103)"/>
<path d="M0 0 C3.95820859 0.56545837 6.6659053 1.80902348 10 4 C9.01 4.495 9.01 4.495 8 5 C6.0546875 4.22265625 6.0546875 4.22265625 3.875 3.0625 C3.15054688 2.68222656 2.42609375 2.30195313 1.6796875 1.91015625 C1.12539062 1.60980469 0.57109375 1.30945313 0 1 C0 0.67 0 0.34 0 0 Z " fill="#DE3224" transform="translate(182,259)"/>
<path d="M0 0 C3.91402949 1.26941497 5.79072873 2.51167694 8 6 C5.21788056 5.62403791 3.4120716 5.32681541 1.1875 3.5625 C0 2 0 2 0 0 Z " fill="#FEA59C" transform="translate(222,116)"/>
<path d="M0 0 C1.32 0.33 2.64 0.66 4 1 C1.69 2.65 -0.62 4.3 -3 6 C-3.33 5.34 -3.66 4.68 -4 4 C-3.34 4 -2.68 4 -2 4 C-2 3.34 -2 2.68 -2 2 C-1.34 2 -0.68 2 0 2 C0 1.34 0 0.68 0 0 Z " fill="#CC1C13" transform="translate(276,311)"/>
<path d="M0 0 C1.65 0 3.3 0 5 0 C3.35 1.98 1.7 3.96 0 6 C-1.24546405 3.50907189 -0.7767578 2.58919267 0 0 Z " fill="#C81712" transform="translate(299,290)"/>
<path d="M0 0 C0.763125 0.309375 1.52625 0.61875 2.3125 0.9375 C4.18789677 1.67893593 6.08684652 2.36228217 8 3 C7.67 3.66 7.34 4.32 7 5 C4.69 4.67 2.38 4.34 0 4 C0 2.68 0 1.36 0 0 Z " fill="#E12517" transform="translate(161,267)"/>
<path d="M0 0 C0.66 0 1.32 0 2 0 C1.01 2.97 0.02 5.94 -1 9 C-1.33 9 -1.66 9 -2 9 C-2 7.02 -2 5.04 -2 3 C-1.34 3 -0.68 3 0 3 C0 2.01 0 1.02 0 0 Z " fill="#C71E14" transform="translate(325,252)"/>
</svg>
